Jost-Regular.ufo
<glyph name="exclam" format="2">
  <advance width="300"/>
  <unicode hex="0021"/>
  <outline>
    <contour>
      <point x="100" y="700" type="line"/>
      <point x="200" y="700" type="line"/>
      <point x="180" y="200" type="line"/>
      <point x="120" y="200" type="line"/>
    </contour>
    <contour>
      <point x="95" y="40" type="curve" smooth="yes"/>
      <point x="95" y="70"/>
      <point x="120" y="95"/>
      <point x="150" y="95" type="curve" smooth="yes"/>
      <point x="180" y="95"/>
      <point x="205" y="70"/>
      <point x="205" y="40" type="curve" smooth="yes"/>
      <point x="205" y="10"/>
      <point x="180" y="-15"/>
      <point x="150" y="-15" type="curve" smooth="yes"/>
      <point x="120" y="-15"/>
      <point x="95" y="10"/>
    </contour>
  </outline>
</glyph>
<glyph name="quotesingle" format="2">
  <advance width="285"/>
  <unicode hex="0027"/>
  <outline>
    <contour>
      <point x="130" y="700" type="line"/>
      <point x="225" y="700" type="line"/>
      <point x="135" y="400" type="line"/>
      <point x="80" y="400" type="line"/>
    </contour>
  </outline>
</glyph>
<glyph name="asterisk" format="2">
  <advance width="592"/>
  <unicode hex="002A"/>
  <outline>
    <contour>
      <point x="471" y="599" type="line"/>
      <point x="492" y="532" type="line"/>
      <point x="304" y="481" type="line"/>
      <point x="288" y="529" type="line"/>
    </contour>
    <contour>
      <point x="439" y="368" type="line"/>
      <point x="382" y="327" type="line"/>
      <point x="276" y="490" type="line"/>
      <point x="316" y="520" type="line"/>
    </contour>
    <contour>
      <point x="210" y="327" type="line"/>
      <point x="153" y="368" type="line"/>
      <point x="276" y="520" type="line"/>
      <point x="316" y="490" type="line"/>
    </contour>
    <contour>
      <point x="100" y="532" type="line"/>
      <point x="121" y="599" type="line"/>
      <point x="304" y="529" type="line"/>
      <point x="288" y="481" type="line"/>
    </contour>
    <contour>
      <point x="261" y="700" type="line"/>
      <point x="331" y="700" type="line"/>
      <point x="321" y="505" type="line"/>
      <point x="271" y="505" type="line"/>
    </contour>
  </outline>
</glyph>
<glyph name="four" format="2">
  <advance width="583"/>
  <unicode hex="0034"/>
  <outline>
    <contour>
      <point x="20" y="140" type="line"/>
      <point x="408" y="700" type="line"/>
      <point x="443" y="700" type="line"/>
      <point x="443" y="0" type="line"/>
      <point x="358" y="0" type="line"/>
      <point x="358" y="176" type="line"/>
      <point x="358" y="187" type="line"/>
      <point x="358" y="511" type="line"/>
      <point x="160" y="215" type="line"/>
      <point x="393" y="215" type="line"/>
      <point x="410" y="215" type="line"/>
      <point x="553" y="215" type="line"/>
      <point x="553" y="140" type="line"/>
    </contour>
  </outline>
</glyph>
<glyph name="seven" format="2">
  <advance width="525"/>
  <unicode hex="0037"/>
  <outline>
    <contour>
      <point x="30" y="620" type="line"/>
      <point x="30" y="700" type="line"/>
      <point x="520" y="700" type="line"/>
      <point x="185" y="0" type="line"/>
      <point x="96" y="0" type="line"/>
      <point x="393" y="620" type="line"/>
    </contour>
  </outline>
</glyph>
<glyph name="semicolon" format="2">
  <advance width="330"/>
  <unicode hex="003B"/>
  <outline>
    <contour>
      <point x="125" y="420" type="curve" smooth="yes"/>
      <point x="125" y="450"/>
      <point x="150" y="475"/>
      <point x="180" y="475" type="curve" smooth="yes"/>
      <point x="210" y="475"/>
      <point x="235" y="450"/>
      <point x="235" y="420" type="curve" smooth="yes"/>
      <point x="235" y="390"/>
      <point x="210" y="365"/>
      <point x="180" y="365" type="curve" smooth="yes"/>
      <point x="150" y="365"/>
      <point x="125" y="390"/>
    </contour>
    <contour>
      <point x="148" y="110" type="line"/>
      <point x="228" y="80" type="line"/>
      <point x="118" y="-170" type="line"/>
      <point x="60" y="-149" type="line"/>
    </contour>
  </outline>
</glyph>
<glyph name="equal" format="2">
  <advance width="615"/>
  <unicode hex="003D"/>
  <outline>
    <contour>
      <point x="65" y="140" type="line"/>
      <point x="65" y="215" type="line"/>
      <point x="550" y="215" type="line"/>
      <point x="550" y="140" type="line"/>
    </contour>
    <contour>
      <point x="65" y="290" type="line"/>
      <point x="65" y="365" type="line"/>
      <point x="550" y="365" type="line"/>
      <point x="550" y="290" type="line"/>
    </contour>
  </outline>
</glyph>
<glyph name="I" format="2">
  <advance width="245"/>
  <unicode hex="0049"/>
  <outline>
    <contour>
      <point x="80" y="700" type="line"/>
      <point x="165" y="700" type="line"/>
      <point x="165" y="0" type="line"/>
      <point x="80" y="0" type="line"/>
    </contour>
  </outline>
</glyph>
<glyph name="M" format="2">
  <advance width="810"/>
  <unicode hex="004D"/>
  <outline>
    <contour>
      <point x="177" y="473" type="line"/>
      <point x="125" y="0" type="line"/>
      <point x="40" y="0" type="line"/>
      <point x="125" y="735" type="line"/>
      <point x="405" y="228" type="line"/>
      <point x="685" y="735" type="line"/>
      <point x="770" y="0" type="line"/>
      <point x="685" y="0" type="line"/>
      <point x="633" y="473" type="line"/>
      <point x="405" y="65" type="line"/>
    </contour>
  </outline>
</glyph>
<glyph name="S" format="2">
  <advance width="548"/>
  <unicode hex="0053"/>
  <outline>
    <contour>
      <point x="112" y="226" type="line"/>
      <point x="154" y="130"/>
      <point x="208" y="70"/>
      <point x="295" y="70" type="curve" smooth="yes"/>
      <point x="375" y="70"/>
      <point x="415" y="113"/>
      <point x="415" y="183" type="curve" smooth="yes"/>
      <point x="415" y="273"/>
      <point x="331" y="309"/>
      <point x="251" y="338" type="curve" smooth="yes"/>
      <point x="181" y="363"/>
      <point x="75" y="401"/>
      <point x="75" y="530" type="curve" smooth="yes"/>
      <point x="75" y="636"/>
      <point x="154" y="710"/>
      <point x="278" y="710" type="curve" smooth="yes"/>
      <point x="391" y="710"/>
      <point x="457" y="641"/>
      <point x="494" y="560" type="curve"/>
      <point x="425" y="514" type="line"/>
      <point x="395" y="572"/>
      <point x="346" y="629"/>
      <point x="269" y="629" type="curve" smooth="yes"/>
      <point x="199" y="629"/>
      <point x="164" y="590"/>
      <point x="164" y="529" type="curve" smooth="yes"/>
      <point x="164" y="461"/>
      <point x="241" y="428"/>
      <point x="326" y="396" type="curve" smooth="yes"/>
      <point x="399" y="369"/>
      <point x="503" y="317"/>
      <point x="503" y="190" type="curve" smooth="yes"/>
      <point x="503" y="71"/>
      <point x="419" y="-10"/>
      <point x="290" y="-10" type="curve" smooth="yes"/>
      <point x="175" y="-10"/>
      <point x="84" y="68"/>
      <point x="40" y="183" type="curve"/>
    </contour>
  </outline>
</glyph>
<glyph name="X" format="2">
  <advance width="555"/>
  <unicode hex="0058"/>
  <outline>
    <contour>
      <point x="430" y="700" type="line"/>
      <point x="530" y="700" type="line"/>
      <point x="323" y="367" type="line"/>
      <point x="545" y="0" type="line"/>
      <point x="445" y="0" type="line"/>
      <point x="280" y="293" type="line"/>
      <point x="110" y="0" type="line"/>
      <point x="10" y="0" type="line"/>
      <point x="238" y="367" type="line"/>
      <point x="35" y="700" type="line"/>
      <point x="135" y="700" type="line"/>
      <point x="281" y="441" type="line"/>
    </contour>
  </outline>
</glyph>
<glyph name="asciicircum" format="2">
  <advance width="510"/>
  <unicode hex="005E"/>
  <outline>
    <contour>
      <point x="255" y="621" type="line"/>
      <point x="145" y="460" type="line"/>
      <point x="65" y="460" type="line"/>
      <point x="235" y="710" type="line"/>
      <point x="275" y="710" type="line"/>
      <point x="445" y="460" type="line"/>
      <point x="365" y="460" type="line"/>
    </contour>
  </outline>
</glyph>
<glyph name="f" format="2">
  <advance width="286"/>
  <unicode hex="0066"/>
  <outline>
    <contour>
      <point x="40" y="460" type="line"/>
      <point x="270" y="460" type="line"/>
      <point x="270" y="385" type="line"/>
      <point x="40" y="385" type="line"/>
    </contour>
    <contour>
      <point x="262" y="684" type="line"/>
      <point x="248" y="707"/>
      <point x="229" y="710"/>
      <point x="213" y="710" type="curve" smooth="yes"/>
      <point x="183" y="710"/>
      <point x="165" y="686"/>
      <point x="165" y="620" type="curve" smooth="yes"/>
      <point x="165" y="0" type="line"/>
      <point x="85" y="0" type="line"/>
      <point x="85" y="630" type="line" smooth="yes"/>
      <point x="85" y="739"/>
      <point x="134" y="790"/>
      <point x="218" y="790" type="curve" smooth="yes"/>
      <point x="261" y="790"/>
      <point x="291" y="770"/>
      <point x="306" y="750" type="curve"/>
    </contour>
  </outline>
</glyph>
<glyph name="t" format="2">
  <advance width="240"/>
  <unicode hex="0074"/>
  <outline>
    <contour>
      <point x="5" y="460" type="line"/>
      <point x="235" y="460" type="line"/>
      <point x="235" y="385" type="line"/>
      <point x="5" y="385" type="line"/>
    </contour>
    <contour>
      <point x="80" y="620" type="line"/>
      <point x="160" y="620" type="line"/>
      <point x="160" y="0" type="line"/>
      <point x="80" y="0" type="line"/>
    </contour>
  </outline>
</glyph>
<glyph name="z" format="2">
  <advance width="460"/>
  <unicode hex="007A"/>
  <outline>
    <contour>
      <point x="300" y="385" type="line"/>
      <point x="45" y="385" type="line"/>
      <point x="45" y="460" type="line"/>
      <point x="445" y="460" type="line"/>
      <point x="160" y="75" type="line"/>
      <point x="425" y="75" type="line"/>
      <point x="425" y="0" type="line"/>
      <point x="15" y="0" type="line"/>
    </contour>
  </outline>
</glyph>
<glyph name="registered" format="2">
  <advance width="800"/>
  <unicode hex="00AE"/>
  <outline>
    <contour>
      <point x="349" y="357" type="line"/>
      <point x="406" y="357" type="line"/>
      <point x="556" y="150" type="line"/>
      <point x="493" y="150" type="line"/>
    </contour>
    <contour>
      <point x="274" y="570" type="line"/>
      <point x="325" y="570" type="line"/>
      <point x="325" y="150" type="line"/>
      <point x="274" y="150" type="line"/>
    </contour>
    <contour>
      <point x="302" y="525" type="line"/>
      <point x="302" y="570" type="line"/>
      <point x="388" y="570" type="line" smooth="yes"/>
      <point x="469" y="570"/>
      <point x="531" y="521"/>
      <point x="531" y="444" type="curve" smooth="yes"/>
      <point x="531" y="367"/>
      <point x="469" y="318"/>
      <point x="388" y="318" type="curve" smooth="yes"/>
      <point x="302" y="318" type="line"/>
      <point x="302" y="363" type="line"/>
      <point x="388" y="363" type="line" smooth="yes"/>
      <point x="442" y="363"/>
      <point x="480" y="392"/>
      <point x="480" y="444" type="curve" smooth="yes"/>
      <point x="480" y="496"/>
      <point x="442" y="525"/>
      <point x="388" y="525" type="curve" smooth="yes"/>
    </contour>
    <contour>
      <point x="95" y="350" type="curve" smooth="yes"/>
      <point x="95" y="172"/>
      <point x="227" y="40"/>
      <point x="400" y="40" type="curve" smooth="yes"/>
      <point x="573" y="40"/>
      <point x="705" y="172"/>
      <point x="705" y="350" type="curve" smooth="yes"/>
      <point x="705" y="528"/>
      <point x="573" y="660"/>
      <point x="400" y="660" type="curve" smooth="yes"/>
      <point x="227" y="660"/>
      <point x="95" y="528"/>
    </contour>
    <contour>
      <point x="40" y="350" type="curve" smooth="yes"/>
      <point x="40" y="559"/>
      <point x="196" y="710"/>
      <point x="400" y="710" type="curve" smooth="yes"/>
      <point x="604" y="710"/>
      <point x="760" y="559"/>
      <point x="760" y="350" type="curve" smooth="yes"/>
      <point x="760" y="141"/>
      <point x="604" y="-10"/>
      <point x="400" y="-10" type="curve" smooth="yes"/>
      <point x="196" y="-10"/>
      <point x="40" y="141"/>
    </contour>
  </outline>
</glyph>
<glyph name="macron" format="2">
  <advance width="510"/>
  <unicode hex="00AF"/>
  <outline>
    <contour>
      <point x="80" y="600" type="line"/>
      <point x="80" y="675" type="line"/>
      <point x="430" y="675" type="line"/>
      <point x="430" y="600" type="line"/>
    </contour>
  </outline>
</glyph>
<glyph name="acute" format="2">
  <advance width="375"/>
  <unicode hex="00B4"/>
  <outline>
    <contour>
      <point x="300" y="660" type="line"/>
      <point x="120" y="510" type="line"/>
      <point x="75" y="540" type="line"/>
      <point x="225" y="700" type="line"/>
    </contour>
  </outline>
</glyph>
<glyph name="periodcentered" format="2">
  <advance width="300"/>
  <unicode hex="00B7"/>
  <outline>
    <contour>
      <point x="95" y="240" type="curve" smooth="yes"/>
      <point x="95" y="270"/>
      <point x="120" y="295"/>
      <point x="150" y="295" type="curve" smooth="yes"/>
      <point x="180" y="295"/>
      <point x="205" y="270"/>
      <point x="205" y="240" type="curve" smooth="yes"/>
      <point x="205" y="210"/>
      <point x="180" y="185"/>
      <point x="150" y="185" type="curve" smooth="yes"/>
      <point x="120" y="185"/>
      <point x="95" y="210"/>
    </contour>
  </outline>
</glyph>
<glyph name="aring" format="2">
  <advance width="485"/>
  <unicode hex="00E5"/>
  <outline>
    <contour>
      <point x="111" y="135" type="curve" smooth="yes"/>
      <point x="111" y="86"/>
      <point x="144" y="61"/>
      <point x="208" y="61" type="curve" smooth="yes"/>
      <point x="288" y="61"/>
      <point x="345" y="94"/>
      <point x="345" y="180" type="curve"/>
      <point x="361" y="130" type="line"/>
      <point x="361" y="41"/>
      <point x="283" y="-10"/>
      <point x="188" y="-10" type="curve" smooth="yes"/>
      <point x="93" y="-10"/>
      <point x="30" y="41"/>
      <point x="30" y="125" type="curve" smooth="yes"/>
      <point x="30" y="232"/>
      <point x="115" y="286"/>
      <point x="226" y="286" type="curve" smooth="yes"/>
      <point x="314" y="286"/>
      <point x="364" y="242"/>
      <point x="378" y="225" type="curve"/>
      <point x="378" y="178" type="line"/>
      <point x="333" y="210"/>
      <point x="288" y="225"/>
      <point x="230" y="225" type="curve" smooth="yes"/>
      <point x="149" y="225"/>
      <point x="111" y="191"/>
    </contour>
    <contour>
      <point x="111" y="352" type="curve"/>
      <point x="72" y="413" type="line"/>
      <point x="106" y="438"/>
      <point x="165" y="470"/>
      <point x="248" y="470" type="curve" smooth="yes"/>
      <point x="353" y="470"/>
      <point x="425" y="419"/>
      <point x="425" y="330" type="curve" smooth="yes"/>
      <point x="425" y="0" type="line"/>
      <point x="345" y="0" type="line"/>
      <point x="345" y="330" type="line" smooth="yes"/>
      <point x="345" y="376"/>
      <point x="298" y="400"/>
      <point x="248" y="400" type="curve" smooth="yes"/>
      <point x="182" y="400"/>
      <point x="133" y="368"/>
    </contour>
    <contour>
      <point x="146" y="630" type="curve" smooth="yes"/>
      <point x="146" y="690"/>
      <point x="196" y="730"/>
      <point x="248" y="730" type="curve" smooth="yes"/>
      <point x="300" y="730"/>
      <point x="350" y="690"/>
      <point x="350" y="630" type="curve" smooth="yes"/>
      <point x="350" y="570"/>
      <point x="300" y="530"/>
      <point x="248" y="530" type="curve" smooth="yes"/>
      <point x="196" y="530"/>
      <point x="146" y="570"/>
    </contour>
    <contour>
      <point x="197" y="630" type="curve" smooth="yes"/>
      <point x="197" y="597"/>
      <point x="223" y="577"/>
      <point x="248" y="577" type="curve" smooth="yes"/>
      <point x="273" y="577"/>
      <point x="299" y="597"/>
      <point x="299" y="630" type="curve" smooth="yes"/>
      <point x="299" y="663"/>
      <point x="273" y="683"/>
      <point x="248" y="683" type="curve" smooth="yes"/>
      <point x="223" y="683"/>
      <point x="197" y="663"/>
    </contour>
  </outline>
</glyph>
<glyph name="yacute" format="2">
  <advance width="440"/>
  <unicode hex="00FD"/>
  <outline>
    <contour>
      <point x="440" y="460" type="line"/>
      <point x="140" y="-220" type="line"/>
      <point x="50" y="-220" type="line"/>
      <point x="176" y="65" type="line"/>
      <point x="0" y="460" type="line"/>
      <point x="95" y="460" type="line"/>
      <point x="241" y="100" type="line"/>
      <point x="208" y="104" type="line"/>
      <point x="350" y="460" type="line"/>
    </contour>
    <contour>
      <point x="350" y="700" type="line"/>
      <point x="170" y="550" type="line"/>
      <point x="125" y="580" type="line"/>
      <point x="275" y="740" type="line"/>
    </contour>
  </outline>
</glyph>
<glyph name="Hbar" format="2">
  <advance width="715"/>
  <unicode hex="0126"/>
  <outline>
    <contour>
      <point x="127" y="340" type="line"/>
      <point x="127" y="420" type="line"/>
      <point x="607" y="420" type="line"/>
      <point x="607" y="340" type="line"/>
    </contour>
    <contour>
      <point x="550" y="700" type="line"/>
      <point x="635" y="700" type="line"/>
      <point x="635" y="0" type="line"/>
      <point x="550" y="0" type="line"/>
    </contour>
    <contour>
      <point x="80" y="700" type="line"/>
      <point x="165" y="700" type="line"/>
      <point x="165" y="0" type="line"/>
      <point x="80" y="0" type="line"/>
    </contour>
    <contour>
      <point x="5" y="540" type="line"/>
      <point x="5" y="615" type="line"/>
      <point x="710" y="615" type="line"/>
      <point x="710" y="540" type="line"/>
    </contour>
  </outline>
</glyph>
<glyph name="dotlessi" format="2">
  <advance width="260"/>
  <unicode hex="0131"/>
  <outline>
    <contour>
      <point x="90" y="460" type="line"/>
      <point x="170" y="460" type="line"/>
      <point x="170" y="0" type="line"/>
      <point x="90" y="0" type="line"/>
    </contour>
  </outline>
</glyph>
<glyph name="Jcircumflex" format="2">
  <advance width="240"/>
  <unicode hex="0134"/>
  <outline>
    <contour>
      <point x="-67" y="-104" type="line"/>
      <point x="-53" y="-127"/>
      <point x="-24" y="-140"/>
      <point x="12" y="-140" type="curve" smooth="yes"/>
      <point x="42" y="-140"/>
      <point x="80" y="-116"/>
      <point x="80" y="-50" type="curve" smooth="yes"/>
      <point x="80" y="700" type="line"/>
      <point x="160" y="700" type="line"/>
      <point x="160" y="-60" type="line" smooth="yes"/>
      <point x="160" y="-169"/>
      <point x="101" y="-220"/>
      <point x="7" y="-220" type="curve" smooth="yes"/>
      <point x="-46" y="-220"/>
      <point x="-96" y="-190"/>
      <point x="-111" y="-170" type="curve"/>
    </contour>
    <contour>
      <point x="120" y="865" type="line"/>
      <point x="10" y="770" type="line"/>
      <point x="-40" y="810" type="line"/>
      <point x="120" y="950" type="line"/>
      <point x="280" y="810" type="line"/>
      <point x="230" y="770" type="line"/>
    </contour>
  </outline>
</glyph>
<glyph name="ldot" format="2">
  <advance width="370"/>
  <unicode hex="0140"/>
  <outline>
    <contour>
      <point x="75" y="780" type="line"/>
      <point x="155" y="780" type="line"/>
      <point x="155" y="0" type="line"/>
      <point x="75" y="0" type="line"/>
    </contour>
    <contour>
      <point x="215" y="415" type="curve" smooth="yes"/>
      <point x="215" y="445"/>
      <point x="240" y="470"/>
      <point x="270" y="470" type="curve" smooth="yes"/>
      <point x="300" y="470"/>
      <point x="325" y="445"/>
      <point x="325" y="415" type="curve" smooth="yes"/>
      <point x="325" y="385"/>
      <point x="300" y="360"/>
      <point x="270" y="360" type="curve" smooth="yes"/>
      <point x="240" y="360"/>
      <point x="215" y="385"/>
    </contour>
  </outline>
</glyph>
<glyph name="napostrophe" format="2">
  <advance width="635"/>
  <unicode hex="0149"/>
  <outline>
    <contour>
      <point x="265" y="460" type="line"/>
      <point x="265" y="0" type="line"/>
      <point x="185" y="0" type="line"/>
      <point x="185" y="460" type="line"/>
    </contour>
    <contour>
      <point x="480" y="280" type="line" smooth="yes"/>
      <point x="480" y="356"/>
      <point x="447" y="395"/>
      <point x="382" y="395" type="curve" smooth="yes"/>
      <point x="312" y="395"/>
      <point x="265" y="346"/>
      <point x="265" y="280" type="curve"/>
      <point x="229" y="280" type="line"/>
      <point x="229" y="389"/>
      <point x="307" y="470"/>
      <point x="402" y="470" type="curve" smooth="yes"/>
      <point x="497" y="470"/>
      <point x="560" y="409"/>
      <point x="560" y="290" type="curve" smooth="yes"/>
      <point x="560" y="0" type="line"/>
      <point x="480" y="0" type="line"/>
    </contour>
    <contour>
      <point x="130" y="700" type="line"/>
      <point x="225" y="700" type="line"/>
      <point x="125" y="470" type="line"/>
      <point x="70" y="470" type="line"/>
    </contour>
  </outline>
</glyph>
<glyph name="scircumflex" format="2">
  <advance width="403"/>
  <unicode hex="015D"/>
  <outline>
    <contour>
      <point x="91" y="161" type="line"/>
      <point x="103" y="105"/>
      <point x="153" y="65"/>
      <point x="210" y="65" type="curve" smooth="yes"/>
      <point x="260" y="65"/>
      <point x="290" y="83"/>
      <point x="290" y="123" type="curve" smooth="yes"/>
      <point x="290" y="173"/>
      <point x="239" y="194"/>
      <point x="186" y="215" type="curve" smooth="yes"/>
      <point x="123" y="240"/>
      <point x="54" y="272"/>
      <point x="54" y="349" type="curve" smooth="yes"/>
      <point x="54" y="425"/>
      <point x="129" y="470"/>
      <point x="203" y="470" type="curve" smooth="yes"/>
      <point x="276" y="470"/>
      <point x="351" y="431"/>
      <point x="369" y="380" type="curve"/>
      <point x="305" y="339" type="line"/>
      <point x="283" y="370"/>
      <point x="241" y="394"/>
      <point x="204" y="394" type="curve" smooth="yes"/>
      <point x="164" y="394"/>
      <point x="134" y="380"/>
      <point x="134" y="344" type="curve" smooth="yes"/>
      <point x="134" y="308"/>
      <point x="195" y="287"/>
      <point x="246" y="266" type="curve" smooth="yes"/>
      <point x="311" y="239"/>
      <point x="373" y="197"/>
      <point x="373" y="130" type="curve" smooth="yes"/>
      <point x="373" y="31"/>
      <point x="304" y="-10"/>
      <point x="205" y="-10" type="curve" smooth="yes"/>
      <point x="120" y="-10"/>
      <point x="39" y="48"/>
      <point x="25" y="123" type="curve"/>
    </contour>
    <contour>
      <point x="203" y="625" type="line"/>
      <point x="93" y="530" type="line"/>
      <point x="43" y="570" type="line"/>
      <point x="203" y="710" type="line"/>
      <point x="363" y="570" type="line"/>
      <point x="313" y="530" type="line"/>
    </contour>
  </outline>
</glyph>
<glyph name="Scedilla" format="2">
  <advance width="548"/>
  <unicode hex="015E"/>
  <outline>
    <contour>
      <point x="112" y="226" type="line"/>
      <point x="154" y="130"/>
      <point x="208" y="70"/>
      <point x="295" y="70" type="curve" smooth="yes"/>
      <point x="375" y="70"/>
      <point x="415" y="113"/>
      <point x="415" y="183" type="curve" smooth="yes"/>
      <point x="415" y="273"/>
      <point x="331" y="309"/>
      <point x="251" y="338" type="curve" smooth="yes"/>
      <point x="181" y="363"/>
      <point x="75" y="401"/>
      <point x="75" y="530" type="curve" smooth="yes"/>
      <point x="75" y="636"/>
      <point x="154" y="710"/>
      <point x="278" y="710" type="curve" smooth="yes"/>
      <point x="391" y="710"/>
      <point x="457" y="641"/>
      <point x="494" y="560" type="curve"/>
      <point x="425" y="514" type="line"/>
      <point x="395" y="572"/>
      <point x="346" y="629"/>
      <point x="269" y="629" type="curve" smooth="yes"/>
      <point x="199" y="629"/>
      <point x="164" y="590"/>
      <point x="164" y="529" type="curve" smooth="yes"/>
      <point x="164" y="461"/>
      <point x="241" y="428"/>
      <point x="326" y="396" type="curve" smooth="yes"/>
      <point x="399" y="369"/>
      <point x="503" y="317"/>
      <point x="503" y="190" type="curve" smooth="yes"/>
      <point x="503" y="71"/>
      <point x="419" y="-10"/>
      <point x="290" y="-10" type="curve" smooth="yes"/>
      <point x="175" y="-10"/>
      <point x="84" y="68"/>
      <point x="40" y="183" type="curve"/>
    </contour>
    <contour>
      <point x="300" y="59" type="line"/>
      <point x="360" y="59" type="line"/>
      <point x="297" y="-53" type="line"/>
      <point x="300" y="-53"/>
      <point x="303" y="-53"/>
      <point x="306" y="-53" type="curve" smooth="yes"/>
      <point x="339" y="-53"/>
      <point x="378" y="-78"/>
      <point x="378" y="-127" type="curve" smooth="yes"/>
      <point x="378" y="-188"/>
      <point x="327" y="-221"/>
      <point x="272" y="-221" type="curve" smooth="yes"/>
      <point x="235" y="-221"/>
      <point x="210" y="-211"/>
      <point x="182" y="-183" type="curve"/>
      <point x="216" y="-143" type="line"/>
      <point x="235" y="-159"/>
      <point x="246" y="-167"/>
      <point x="272" y="-167" type="curve" smooth="yes"/>
      <point x="306" y="-167"/>
      <point x="322" y="-151"/>
      <point x="322" y="-127" type="curve" smooth="yes"/>
      <point x="322" y="-103"/>
      <point x="306" y="-91"/>
      <point x="272" y="-91" type="curve" smooth="yes"/>
      <point x="262" y="-91"/>
      <point x="235" y="-95"/>
      <point x="214" y="-109" type="curve"/>
    </contour>
  </outline>
</glyph>
<glyph name="scedilla" format="2">
  <advance width="403"/>
  <unicode hex="015F"/>
  <outline>
    <contour>
      <point x="88" y="163" type="line"/>
      <point x="120" y="107"/>
      <point x="171" y="66"/>
      <point x="215" y="66" type="curve" smooth="yes"/>
      <point x="258" y="66"/>
      <point x="290" y="83"/>
      <point x="290" y="122" type="curve" smooth="yes"/>
      <point x="290" y="170"/>
      <point x="239" y="191"/>
      <point x="186" y="212" type="curve" smooth="yes"/>
      <point x="123" y="237"/>
      <point x="54" y="260"/>
      <point x="54" y="347" type="curve" smooth="yes"/>
      <point x="54" y="433"/>
      <point x="129" y="471"/>
      <point x="203" y="471" type="curve" smooth="yes"/>
      <point x="276" y="471"/>
      <point x="341" y="432"/>
      <point x="369" y="381" type="curve"/>
      <point x="305" y="340" type="line"/>
      <point x="283" y="371"/>
      <point x="241" y="398"/>
      <point x="204" y="398" type="curve" smooth="yes"/>
      <point x="164" y="398"/>
      <point x="132" y="386"/>
      <point x="132" y="350" type="curve" smooth="yes"/>
      <point x="132" y="306"/>
      <point x="195" y="292"/>
      <point x="246" y="271" type="curve" smooth="yes"/>
      <point x="311" y="244"/>
      <point x="373" y="208"/>
      <point x="373" y="131" type="curve" smooth="yes"/>
      <point x="373" y="32"/>
      <point x="304" y="-9"/>
      <point x="215" y="-9" type="curve" smooth="yes"/>
      <point x="130" y="-9"/>
      <point x="59" y="49"/>
      <point x="25" y="124" type="curve"/>
    </contour>
    <contour>
      <point x="224" y="60" type="line"/>
      <point x="286" y="60" type="line"/>
      <point x="222" y="-52" type="line"/>
      <point x="225" y="-52"/>
      <point x="227" y="-52"/>
      <point x="230" y="-52" type="curve" smooth="yes"/>
      <point x="263" y="-52"/>
      <point x="304" y="-77"/>
      <point x="304" y="-126" type="curve" smooth="yes"/>
      <point x="304" y="-187"/>
      <point x="251" y="-220"/>
      <point x="196" y="-220" type="curve" smooth="yes"/>
      <point x="159" y="-220"/>
      <point x="136" y="-210"/>
      <point x="108" y="-182" type="curve"/>
      <point x="140" y="-142" type="line"/>
      <point x="159" y="-158"/>
      <point x="170" y="-166"/>
      <point x="196" y="-166" type="curve" smooth="yes"/>
      <point x="230" y="-166"/>
      <point x="246" y="-150"/>
      <point x="246" y="-126" type="curve" smooth="yes"/>
      <point x="246" y="-102"/>
      <point x="230" y="-90"/>
      <point x="196" y="-90" type="curve" smooth="yes"/>
      <point x="186" y="-90"/>
      <point x="161" y="-94"/>
      <point x="140" y="-108" type="curve"/>
    </contour>
  </outline>
</glyph>
<glyph name="Tcaron" format="2">
  <advance width="465"/>
  <unicode hex="0164"/>
  <outline>
    <contour>
      <point x="10" y="620" type="line"/>
      <point x="10" y="700" type="line"/>
      <point x="455" y="700" type="line"/>
      <point x="455" y="620" type="line"/>
      <point x="275" y="620" type="line"/>
      <point x="275" y="0" type="line"/>
      <point x="190" y="0" type="line"/>
      <point x="190" y="620" type="line"/>
    </contour>
    <contour>
      <point x="232.5" y="855" type="line"/>
      <point x="342.5" y="950" type="line"/>
      <point x="392.5" y="910" type="line"/>
      <point x="232.5" y="770" type="line"/>
      <point x="72.5" y="910" type="line"/>
      <point x="122.5" y="950" type="line"/>
    </contour>
  </outline>
</glyph>
<glyph name="Uring" format="2">
  <advance width="626"/>
  <unicode hex="016E"/>
  <outline>
    <contour>
      <point x="75" y="700" type="line"/>
      <point x="160" y="700" type="line"/>
      <point x="160" y="230" type="line" smooth="yes"/>
      <point x="160" y="134"/>
      <point x="213" y="70"/>
      <point x="313" y="70" type="curve" smooth="yes"/>
      <point x="413" y="70"/>
      <point x="466" y="134"/>
      <point x="466" y="230" type="curve" smooth="yes"/>
      <point x="466" y="700" type="line"/>
      <point x="551" y="700" type="line"/>
      <point x="551" y="230" type="line" smooth="yes"/>
      <point x="551" y="91"/>
      <point x="458" y="-10"/>
      <point x="313" y="-10" type="curve" smooth="yes"/>
      <point x="168" y="-10"/>
      <point x="75" y="91"/>
      <point x="75" y="230" type="curve" smooth="yes"/>
    </contour>
    <contour>
      <point x="211" y="870" type="curve" smooth="yes"/>
      <point x="211" y="930"/>
      <point x="261" y="970"/>
      <point x="313" y="970" type="curve" smooth="yes"/>
      <point x="365" y="970"/>
      <point x="415" y="930"/>
      <point x="415" y="870" type="curve" smooth="yes"/>
      <point x="415" y="810"/>
      <point x="365" y="770"/>
      <point x="313" y="770" type="curve" smooth="yes"/>
      <point x="261" y="770"/>
      <point x="211" y="810"/>
    </contour>
    <contour>
      <point x="262" y="870" type="curve" smooth="yes"/>
      <point x="262" y="837"/>
      <point x="288" y="817"/>
      <point x="313" y="817" type="curve" smooth="yes"/>
      <point x="338" y="817"/>
      <point x="364" y="837"/>
      <point x="364" y="870" type="curve" smooth="yes"/>
      <point x="364" y="903"/>
      <point x="338" y="923"/>
      <point x="313" y="923" type="curve" smooth="yes"/>
      <point x="288" y="923"/>
      <point x="262" y="903"/>
    </contour>
  </outline>
</glyph>
<glyph name="zacute" format="2">
  <advance width="460"/>
  <unicode hex="017A"/>
  <outline>
    <contour>
      <point x="300" y="385" type="line"/>
      <point x="45" y="385" type="line"/>
      <point x="45" y="460" type="line"/>
      <point x="445" y="460" type="line"/>
      <point x="160" y="75" type="line"/>
      <point x="425" y="75" type="line"/>
      <point x="425" y="0" type="line"/>
      <point x="15" y="0" type="line"/>
    </contour>
    <contour>
      <point x="405" y="700" type="line"/>
      <point x="225" y="550" type="line"/>
      <point x="180" y="580" type="line"/>
      <point x="330" y="740" type="line"/>
    </contour>
  </outline>
</glyph>
<glyph name="uni021A" format="2">
  <advance width="465"/>
  <unicode hex="021A"/>
  <outline>
    <contour>
      <point x="10" y="620" type="line"/>
      <point x="10" y="700" type="line"/>
      <point x="455" y="700" type="line"/>
      <point x="455" y="620" type="line"/>
      <point x="275" y="620" type="line"/>
      <point x="275" y="0" type="line"/>
      <point x="190" y="0" type="line"/>
      <point x="190" y="620" type="line"/>
    </contour>
    <contour>
      <point x="236.5" y="-60" type="line"/>
      <point x="316.5" y="-90" type="line"/>
      <point x="206.5" y="-340" type="line"/>
      <point x="148.5" y="-319" type="line"/>
    </contour>
  </outline>
</glyph>
<glyph name="pi" format="2">
  <advance width="540"/>
  <unicode hex="03C0"/>
  <outline>
    <contour>
      <point x="90" y="430" type="line"/>
      <point x="170" y="430" type="line"/>
      <point x="170" y="0" type="line"/>
      <point x="90" y="0" type="line"/>
    </contour>
    <contour>
      <point x="30" y="460" type="line"/>
      <point x="500" y="460" type="line"/>
      <point x="500" y="385" type="line"/>
      <point x="30" y="385" type="line"/>
    </contour>
    <contour>
      <point x="340" y="430" type="line"/>
      <point x="420" y="430" type="line"/>
      <point x="420" y="141" type="line" smooth="yes"/>
      <point x="420" y="75"/>
      <point x="443" y="71"/>
      <point x="473" y="71" type="curve"/>
      <point x="473" y="-9" type="line"/>
      <point x="389" y="-9"/>
      <point x="340" y="12"/>
      <point x="340" y="121" type="curve" smooth="yes"/>
    </contour>
  </outline>
</glyph>
<glyph name="uni040C" format="2">
  <advance width="565"/>
  <unicode hex="040C"/>
  <outline>
    <contour>
      <point x="80" y="700" type="line"/>
      <point x="165" y="700" type="line"/>
      <point x="165" y="0" type="line"/>
      <point x="80" y="0" type="line"/>
    </contour>
    <contour>
      <point x="440" y="700" type="line"/>
      <point x="545" y="700" type="line"/>
      <point x="242" y="372" type="line"/>
      <point x="560" y="0" type="line"/>
      <point x="455" y="0" type="line"/>
      <point x="139" y="370" type="line"/>
    </contour>
    <contour>
      <point x="492.5" y="920" type="line"/>
      <point x="312.5" y="770" type="line"/>
      <point x="267.5" y="800" type="line"/>
      <point x="417.5" y="960" type="line"/>
    </contour>
  </outline>
</glyph>
<glyph name="uni040E" format="2">
  <advance width="565"/>
  <unicode hex="040E"/>
  <outline>
    <contour>
      <point x="565" y="700" type="line"/>
      <point x="236" y="0" type="line"/>
      <point x="141" y="0" type="line"/>
      <point x="231" y="207" type="line"/>
      <point x="0" y="700" type="line"/>
      <point x="105" y="700" type="line"/>
      <point x="311" y="230" type="line"/>
      <point x="258" y="234" type="line"/>
      <point x="470" y="700" type="line"/>
    </contour>
    <contour>
      <point x="127" y="910" type="curve"/>
      <point x="198" y="910" type="line"/>
      <point x="198" y="884"/>
      <point x="215" y="835"/>
      <point x="285" y="835" type="curve" smooth="yes"/>
      <point x="355" y="835"/>
      <point x="372" y="884"/>
      <point x="372" y="910" type="curve"/>
      <point x="443" y="910" type="line"/>
      <point x="443" y="841"/>
      <point x="390" y="770"/>
      <point x="285" y="770" type="curve" smooth="yes"/>
      <point x="180" y="770"/>
      <point x="127" y="841"/>
    </contour>
  </outline>
</glyph>
<glyph name="uni0431" format="2">
  <advance width="546"/>
  <unicode hex="0431"/>
  <outline>
    <contour>
      <point x="273" y="395" type="curve"/>
      <point x="273" y="470" type="line"/>
      <point x="408" y="470"/>
      <point x="511" y="369"/>
      <point x="511" y="230" type="curve" smooth="yes"/>
      <point x="511" y="91"/>
      <point x="408" y="-10"/>
      <point x="273" y="-10" type="curve" smooth="yes"/>
      <point x="138" y="-10"/>
      <point x="35" y="91"/>
      <point x="35" y="290" type="curve"/>
      <point x="115" y="230" type="line"/>
      <point x="115" y="134"/>
      <point x="183" y="65"/>
      <point x="273" y="65" type="curve" smooth="yes"/>
      <point x="363" y="65"/>
      <point x="430" y="134"/>
      <point x="430" y="230" type="curve" smooth="yes"/>
      <point x="430" y="326"/>
      <point x="363" y="395"/>
    </contour>
    <contour>
      <point x="79" y="230" type="line"/>
      <point x="79" y="379"/>
      <point x="158" y="470"/>
      <point x="273" y="470" type="curve"/>
      <point x="273" y="395" type="line"/>
      <point x="203" y="395"/>
      <point x="115" y="336"/>
      <point x="115" y="230" type="curve"/>
    </contour>
    <contour>
      <point x="35" y="290" type="line"/>
      <point x="35" y="477"/>
      <point x="81.0791" y="600.856"/>
      <point x="242" y="656" type="curve" smooth="yes"/>
      <point x="332.824" y="687.123"/>
      <point x="374" y="732"/>
      <point x="384" y="780" type="curve"/>
      <point x="463" y="780" type="line"/>
      <point x="453" y="691"/>
      <point x="371.082" y="626.301"/>
      <point x="262" y="591" type="curve" smooth="yes"/>
      <point x="137.043" y="550.562"/>
      <point x="105" y="440"/>
      <point x="105" y="340" type="curve" smooth="yes"/>
      <point x="105" y="237" type="line"/>
    </contour>
  </outline>
</glyph>
<glyph name="uni0432" format="2">
  <advance width="453"/>
  <unicode hex="0432"/>
  <outline>
    <contour>
      <point x="122" y="240" type="line"/>
      <point x="255" y="240" type="line" smooth="yes"/>
      <point x="350" y="240"/>
      <point x="423" y="214"/>
      <point x="423" y="125" type="curve" smooth="yes"/>
      <point x="423" y="56"/>
      <point x="380" y="-1.28588e-14"/>
      <point x="275" y="0" type="curve" smooth="yes"/>
      <point x="122" y="0" type="line"/>
      <point x="122" y="70" type="line"/>
      <point x="255" y="70" type="line" smooth="yes"/>
      <point x="315" y="70"/>
      <point x="343" y="99"/>
      <point x="343" y="135" type="curve" smooth="yes"/>
      <point x="343" y="171"/>
      <point x="315" y="198"/>
      <point x="255" y="198" type="curve" smooth="yes"/>
      <point x="122" y="198" type="line"/>
    </contour>
    <contour>
      <point x="122" y="220" type="line"/>
      <point x="122" y="267" type="line"/>
      <point x="245" y="267" type="line" smooth="yes"/>
      <point x="293" y="267"/>
      <point x="323" y="294"/>
      <point x="323" y="330" type="curve" smooth="yes"/>
      <point x="323" y="366"/>
      <point x="293" y="390"/>
      <point x="245" y="390" type="curve" smooth="yes"/>
      <point x="122" y="390" type="line"/>
      <point x="122" y="460" type="line"/>
      <point x="245" y="460" type="line" smooth="yes"/>
      <point x="330" y="460"/>
      <point x="403" y="424"/>
      <point x="403" y="335" type="curve" smooth="yes"/>
      <point x="403" y="256"/>
      <point x="330" y="220"/>
      <point x="245" y="220" type="curve" smooth="yes"/>
    </contour>
    <contour>
      <point x="75" y="460" type="line"/>
      <point x="155" y="460" type="line"/>
      <point x="155" y="0" type="line"/>
      <point x="75" y="0" type="line"/>
    </contour>
  </outline>
</glyph>
<glyph name="uni0435" format="2">
  <advance width="515"/>
  <unicode hex="0435"/>
  <outline>
    <contour>
      <point x="86" y="210" type="line"/>
      <point x="86" y="278" type="line"/>
      <point x="393" y="278" type="line"/>
      <point x="385" y="350"/>
      <point x="343" y="400"/>
      <point x="263" y="400" type="curve" smooth="yes"/>
      <point x="183" y="400"/>
      <point x="118" y="346"/>
      <point x="118" y="260" type="curve"/>
      <point x="116" y="230" type="line"/>
      <point x="116" y="124"/>
      <point x="173" y="65"/>
      <point x="263" y="65" type="curve" smooth="yes"/>
      <point x="330" y="65"/>
      <point x="376" y="98"/>
      <point x="407" y="148" type="curve"/>
      <point x="472" y="107" type="line"/>
      <point x="426" y="37"/>
      <point x="372" y="-10"/>
      <point x="253" y="-10" type="curve" smooth="yes"/>
      <point x="128" y="-10"/>
      <point x="35" y="91"/>
      <point x="35" y="230" type="curve" smooth="yes"/>
      <point x="35" y="247"/>
      <point x="36" y="263"/>
      <point x="39" y="279" type="curve" smooth="yes"/>
      <point x="58" y="392"/>
      <point x="144" y="470"/>
      <point x="263" y="470" type="curve" smooth="yes"/>
      <point x="393" y="470"/>
      <point x="480" y="379"/>
      <point x="480" y="234" type="curve" smooth="yes"/>
      <point x="480" y="226"/>
      <point x="480" y="218"/>
      <point x="479" y="210" type="curve"/>
    </contour>
  </outline>
</glyph>
<glyph name="uni043E" format="2">
  <advance width="546"/>
  <unicode hex="043E"/>
  <outline>
    <contour>
      <point x="35" y="230" type="curve" smooth="yes"/>
      <point x="35" y="369"/>
      <point x="138" y="470"/>
      <point x="273" y="470" type="curve" smooth="yes"/>
      <point x="408" y="470"/>
      <point x="511" y="369"/>
      <point x="511" y="230" type="curve" smooth="yes"/>
      <point x="511" y="91"/>
      <point x="408" y="-10"/>
      <point x="273" y="-10" type="curve" smooth="yes"/>
      <point x="138" y="-10"/>
      <point x="35" y="91"/>
    </contour>
    <contour>
      <point x="116" y="230" type="curve" smooth="yes"/>
      <point x="116" y="134"/>
      <point x="183" y="65"/>
      <point x="273" y="65" type="curve" smooth="yes"/>
      <point x="363" y="65"/>
      <point x="430" y="134"/>
      <point x="430" y="230" type="curve" smooth="yes"/>
      <point x="430" y="326"/>
      <point x="363" y="395"/>
      <point x="273" y="395" type="curve" smooth="yes"/>
      <point x="183" y="395"/>
      <point x="116" y="326"/>
    </contour>
  </outline>
</glyph>
<glyph name="uni0446" format="2">
  <advance width="565"/>
  <unicode hex="0446"/>
  <outline>
    <contour>
      <point x="450" y="75" type="line"/>
      <point x="530" y="75" type="line"/>
      <point x="530" y="-90" type="line"/>
      <point x="460" y="-90" type="line"/>
      <point x="460" y="0" type="line"/>
      <point x="75" y="0" type="line"/>
      <point x="75" y="460" type="line"/>
      <point x="155" y="460" type="line"/>
      <point x="155" y="75" type="line"/>
      <point x="370" y="75" type="line"/>
      <point x="370" y="460" type="line"/>
      <point x="450" y="460" type="line"/>
    </contour>
  </outline>
</glyph>
<glyph name="uni1E9E" format="2">
  <advance width="716"/>
  <unicode hex="1E9E"/>
  <outline>
    <contour>
      <point x="453" y="-10" type="curve" smooth="yes"/>
      <point x="318" y="-10"/>
      <point x="230" y="76"/>
      <point x="230" y="185" type="curve"/>
      <point x="316" y="185" type="line"/>
      <point x="316" y="119"/>
      <point x="373" y="70"/>
      <point x="453" y="70" type="curve" smooth="yes"/>
      <point x="533" y="70"/>
      <point x="584" y="119"/>
      <point x="584" y="195" type="curve" smooth="yes"/>
      <point x="584" y="281"/>
      <point x="513" y="325"/>
      <point x="423" y="325" type="curve"/>
      <point x="423" y="380" type="line"/>
      <point x="558" y="380"/>
      <point x="671" y="324"/>
      <point x="671" y="185" type="curve" smooth="yes"/>
      <point x="671" y="66"/>
      <point x="578" y="-10"/>
    </contour>
    <contour>
      <point x="423" y="345" type="curve"/>
      <point x="423" y="400" type="line"/>
      <point x="513" y="400"/>
      <point x="564" y="455"/>
      <point x="564" y="521" type="curve" smooth="yes"/>
      <point x="564" y="587"/>
      <point x="498" y="633"/>
      <point x="398" y="633" type="curve" smooth="yes"/>
      <point x="273" y="633"/>
      <point x="165" y="567"/>
      <point x="165" y="386" type="curve" smooth="yes"/>
      <point x="165" y="0" type="line"/>
      <point x="80" y="0" type="line"/>
      <point x="80" y="386" type="line" smooth="yes"/>
      <point x="80" y="615"/>
      <point x="222" y="710"/>
      <point x="397" y="710" type="curve" smooth="yes"/>
      <point x="537" y="710"/>
      <point x="651" y="648"/>
      <point x="651" y="534" type="curve" smooth="yes"/>
      <point x="651" y="425"/>
      <point x="558" y="345"/>
    </contour>
  </outline>
</glyph>
<glyph name="quotedblright" format="2">
  <advance width="475"/>
  <unicode hex="201D"/>
  <outline>
    <contour>
      <point x="110" y="700" type="line"/>
      <point x="205" y="700" type="line"/>
      <point x="105" y="470" type="line"/>
      <point x="50" y="470" type="line"/>
    </contour>
    <contour>
      <point x="310" y="700" type="line"/>
      <point x="405" y="700" type="line"/>
      <point x="305" y="470" type="line"/>
      <point x="250" y="470" type="line"/>
    </contour>
  </outline>
</glyph>
<glyph name="guilsinglright" format="2">
  <advance width="350"/>
  <unicode hex="203A"/>
  <outline>
    <contour>
      <point x="220" y="251" type="line"/>
      <point x="70" y="445" type="line"/>
      <point x="120" y="490" type="line"/>
      <point x="310" y="255" type="line"/>
      <point x="120" y="20" type="line"/>
      <point x="70" y="65" type="line"/>
    </contour>
  </outline>
</glyph>
<glyph name="uni2086" format="2">
  <advance width="346"/>
  <unicode hex="2086"/>
  <outline>
    <contour>
      <point x="84" y="136" type="curve" smooth="yes"/>
      <point x="84" y="78"/>
      <point x="124" y="38"/>
      <point x="178" y="38" type="curve" smooth="yes"/>
      <point x="232" y="38"/>
      <point x="272" y="78"/>
      <point x="272" y="136" type="curve" smooth="yes"/>
      <point x="272" y="194"/>
      <point x="232" y="235"/>
      <point x="178" y="235" type="curve" smooth="yes"/>
      <point x="124" y="235"/>
      <point x="84" y="194"/>
    </contour>
    <contour>
      <point x="203" y="418" type="line"/>
      <point x="268" y="418" type="line"/>
      <point x="136" y="245" type="line"/>
      <point x="133" y="248" type="line"/>
      <point x="149" y="268"/>
      <point x="170" y="272"/>
      <point x="197" y="272" type="curve" smooth="yes"/>
      <point x="265" y="272"/>
      <point x="321" y="213"/>
      <point x="321" y="136" type="curve" smooth="yes"/>
      <point x="321" y="50"/>
      <point x="259" y="-8"/>
      <point x="178" y="-8" type="curve" smooth="yes"/>
      <point x="97" y="-8"/>
      <point x="35" y="50"/>
      <point x="35" y="136" type="curve" smooth="yes"/>
      <point x="35" y="170"/>
      <point x="46" y="201"/>
      <point x="62" y="223" type="curve" smooth="yes"/>
    </contour>
  </outline>
</glyph>
<glyph name="uni2152" format="2">
  <advance width="1080"/>
  <unicode hex="2152"/>
  <outline>
    <contour>
      <point x="568" y="700" type="line"/>
      <point x="633" y="700" type="line"/>
      <point x="113" y="0" type="line"/>
      <point x="48" y="0" type="line"/>
    </contour>
    <contour>
      <point x="30" y="611" type="line"/>
      <point x="30" y="664" type="line"/>
      <point x="174" y="700" type="line"/>
      <point x="174" y="274" type="line"/>
      <point x="123" y="274" type="line"/>
      <point x="123" y="639" type="line"/>
    </contour>
    <contour>
      <point x="488" y="338" type="line"/>
      <point x="488" y="391" type="line"/>
      <point x="632" y="427" type="line"/>
      <point x="632" y="1" type="line"/>
      <point x="581" y="1" type="line"/>
      <point x="581" y="366" type="line"/>
    </contour>
    <contour>
      <point x="789" y="210" type="curve" smooth="yes"/>
      <point x="789" y="112"/>
      <point x="829" y="42"/>
      <point x="894" y="42" type="curve" smooth="yes"/>
      <point x="959" y="42"/>
      <point x="999" y="112"/>
      <point x="999" y="210" type="curve" smooth="yes"/>
      <point x="999" y="308"/>
      <point x="959" y="378"/>
      <point x="894" y="378" type="curve" smooth="yes"/>
      <point x="829" y="378"/>
      <point x="789" y="308"/>
    </contour>
    <contour>
      <point x="738" y="210" type="curve" smooth="yes"/>
      <point x="738" y="335"/>
      <point x="802" y="426"/>
      <point x="894" y="426" type="curve" smooth="yes"/>
      <point x="986" y="426"/>
      <point x="1050" y="335"/>
      <point x="1050" y="210" type="curve" smooth="yes"/>
      <point x="1050" y="85"/>
      <point x="986" y="-6"/>
      <point x="894" y="-6" type="curve" smooth="yes"/>
      <point x="802" y="-6"/>
      <point x="738" y="85"/>
    </contour>
  </outline>
</glyph>
<glyph name="uni2159" format="2">
  <advance width="734"/>
  <unicode hex="2159"/>
  <outline>
    <contour>
      <point x="568" y="700" type="line"/>
      <point x="633" y="700" type="line"/>
      <point x="113" y="0" type="line"/>
      <point x="48" y="0" type="line"/>
    </contour>
    <contour>
      <point x="30" y="611" type="line"/>
      <point x="30" y="664" type="line"/>
      <point x="174" y="700" type="line"/>
      <point x="174" y="274" type="line"/>
      <point x="123" y="274" type="line"/>
      <point x="123" y="639" type="line"/>
    </contour>
    <contour>
      <point x="473" y="136" type="curve" smooth="yes"/>
      <point x="473" y="78"/>
      <point x="513" y="38"/>
      <point x="567" y="38" type="curve" smooth="yes"/>
      <point x="621" y="38"/>
      <point x="661" y="78"/>
      <point x="661" y="136" type="curve" smooth="yes"/>
      <point x="661" y="194"/>
      <point x="621" y="235"/>
      <point x="567" y="235" type="curve" smooth="yes"/>
      <point x="513" y="235"/>
      <point x="473" y="194"/>
    </contour>
    <contour>
      <point x="592" y="418" type="line"/>
      <point x="657" y="418" type="line"/>
      <point x="525" y="245" type="line"/>
      <point x="522" y="248" type="line"/>
      <point x="538" y="268"/>
      <point x="559" y="272"/>
      <point x="586" y="272" type="curve" smooth="yes"/>
      <point x="654" y="272"/>
      <point x="710" y="213"/>
      <point x="710" y="136" type="curve" smooth="yes"/>
      <point x="710" y="50"/>
      <point x="648" y="-8"/>
      <point x="567" y="-8" type="curve" smooth="yes"/>
      <point x="486" y="-8"/>
      <point x="424" y="50"/>
      <point x="424" y="136" type="curve" smooth="yes"/>
      <point x="424" y="170"/>
      <point x="435" y="201"/>
      <point x="451" y="223" type="curve" smooth="yes"/>
    </contour>
  </outline>
</glyph>
<glyph name="uniFF13" format="2">
  <advance width="580"/>
  <unicode hex="FF13"/>
  <outline>
    <contour>
      <point x="270" y="345" type="curve"/>
      <point x="270" y="400" type="line"/>
      <point x="360" y="400"/>
      <point x="411" y="455"/>
      <point x="411" y="521" type="curve" smooth="yes"/>
      <point x="411" y="587"/>
      <point x="375" y="633"/>
      <point x="305" y="633" type="curve" smooth="yes"/>
      <point x="240" y="633"/>
      <point x="188" y="587"/>
      <point x="188" y="526" type="curve"/>
      <point x="107" y="526" type="line"/>
      <point x="107" y="635"/>
      <point x="189" y="710"/>
      <point x="304" y="710" type="curve" smooth="yes"/>
      <point x="424" y="710"/>
      <point x="498" y="623"/>
      <point x="498" y="524" type="curve" smooth="yes"/>
      <point x="498" y="425"/>
      <point x="405" y="345"/>
    </contour>
    <contour>
      <point x="300" y="-10" type="curve" smooth="yes"/>
      <point x="165" y="-10"/>
      <point x="77" y="76"/>
      <point x="77" y="185" type="curve"/>
      <point x="163" y="185" type="line"/>
      <point x="163" y="119"/>
      <point x="220" y="70"/>
      <point x="300" y="70" type="curve" smooth="yes"/>
      <point x="380" y="70"/>
      <point x="431" y="119"/>
      <point x="431" y="195" type="curve" smooth="yes"/>
      <point x="431" y="281"/>
      <point x="360" y="325"/>
      <point x="270" y="325" type="curve"/>
      <point x="270" y="380" type="line"/>
      <point x="405" y="380"/>
      <point x="518" y="324"/>
      <point x="518" y="185" type="curve" smooth="yes"/>
      <point x="518" y="66"/>
      <point x="425" y="-10"/>
    </contour>
  </outline>
</glyph>
<glyph name="uniFF14" format="2">
  <advance width="580"/>
  <unicode hex="FF14"/>
  <outline>
    <contour>
      <point x="18" y="140" type="line"/>
      <point x="88" y="215" type="line"/>
      <point x="391" y="215" type="line" smooth="yes"/>
      <point x="408" y="215" type="line" smooth="yes"/>
      <point x="551" y="215" type="line"/>
      <point x="551" y="140" type="line"/>
    </contour>
    <contour>
      <point x="108" y="140" type="line"/>
      <point x="18" y="140" type="line"/>
      <point x="406" y="700" type="line"/>
      <point x="441" y="700" type="line"/>
      <point x="441" y="0" type="line"/>
      <point x="356" y="0" type="line"/>
      <point x="356" y="176" type="line" smooth="yes"/>
      <point x="356" y="187" type="line" smooth="yes"/>
      <point x="356" y="511" type="line"/>
    </contour>
  </outline>
</glyph>
<glyph name="uniFF15" format="2">
  <advance width="580"/>
  <unicode hex="FF15"/>
  <outline>
    <contour>
      <point x="532" y="230" type="curve" smooth="yes"/>
      <point x="532" y="71"/>
      <point x="422" y="-10"/>
      <point x="287" y="-10" type="curve" smooth="yes"/>
      <point x="158" y="-10"/>
      <point x="84" y="57"/>
      <point x="38" y="137" type="curve"/>
      <point x="110" y="186" type="line"/>
      <point x="141" y="126"/>
      <point x="210" y="70"/>
      <point x="287" y="70" type="curve" smooth="yes"/>
      <point x="387" y="70"/>
      <point x="444" y="134"/>
      <point x="444" y="230" type="curve" smooth="yes"/>
      <point x="444" y="326"/>
      <point x="377" y="390"/>
      <point x="287" y="390" type="curve" smooth="yes"/>
      <point x="220" y="390"/>
      <point x="179" y="377"/>
      <point x="108" y="327" type="curve"/>
      <point x="158" y="393" type="line"/>
      <point x="204" y="443"/>
      <point x="264" y="466"/>
      <point x="323" y="466" type="curve" smooth="yes"/>
      <point x="443" y="466"/>
      <point x="532" y="369"/>
    </contour>
    <contour>
      <point x="266" y="625" type="line"/>
      <point x="213" y="417" type="line"/>
      <point x="108" y="327" type="line"/>
      <point x="200" y="700" type="line"/>
      <point x="530" y="700" type="line"/>
      <point x="530" y="625" type="line"/>
    </contour>
  </outline>
</glyph>
